<svg  xmlns="http://www.w3.org/2000/svg" xmlns:xlink="http://www.w3.org/1999/xlink" viewBox="0 0 17.5 17.6" id="load-balancer"><path d="M15.2 12.1v-1.8c0-1.5-1.2-2.8-2.8-2.8H9.2v-3c1-.2 1.8-1.1 1.8-2.2C11 1 10 0 8.7 0S6.4 1 6.4 2.3c0 1.1.8 2 1.8 2.2v3H5c-1.5 0-2.8 1.2-2.8 2.8v1.8C1 12.3 0 13.5 0 14.8c0 1.5 1.2 2.8 2.8 2.8s2.8-1.2 2.8-2.8c0-1.4-1-2.5-2.3-2.7v-1.8c0-1 .8-1.8 1.8-1.8h7.4c1 0 1.8.8 1.8 1.8v1.8c-1.3.2-2.3 1.4-2.3 2.7 0 1.5 1.2 2.8 2.8 2.8s2.8-1.2 2.8-2.8c-.1-1.3-1.1-2.5-2.4-2.7zM4.5 14.8c0 1-.8 1.8-1.8 1.8S1 15.8 1 14.8 1.8 13 2.8 13s1.7.8 1.7 1.8zm10.2 1.8c-1 0-1.8-.8-1.8-1.8s.8-1.8 1.8-1.8 1.8.8 1.8 1.8-.8 1.8-1.8 1.8z"></path></svg>